# xmcd
#
# Track frame offsets:
#	150
#	17968
#	33077
#	49364
#	67014
#	83026
#	106984
#	125438
#	141255
#	157637
#
# Disc length: 2325 seconds
#
# Revision: 0
# Processed by: cddbd v1.5.1PL2 Copyright (c) Steve Scherf et al.
# Submitted via: EasyCDDAExtractor 9.1.1.2
#
DISCID=7e09130a
DTITLE=The PovertyNeck Hillbillies
DYEAR=2006
DGENRE=Country
TTITLE0=The Night That Changed My Life
TTITLE1=Heaven Help Me
TTITLE2=The Hillbilly Way
TTITLE3=Kinda Cool, Ain't It
TTITLE4=One Night In New Orleans
TTITLE5=She Rides Wild Horses
TTITLE6=Jericho
TTITLE7=Any Road
TTITLE8=Mr. Right Now
TTITLE9=Born To Be Free
EXTD=
EXTT0=
EXTT1=
EXTT2=
EXTT3=
EXTT4=
EXTT5=
EXTT6=
EXTT7=
EXTT8=
EXTT9=
PLAYORDER=
